<svg width="286" height="76" viewBox="0 0 286 76" fill="none" xmlns="http://www.w3.org/2000/svg">
<rect width="286" height="76" rx="5" fill="#15282F"/>
<path d="M208.567 31.2705V52.7158H200.704V31.2705H208.567Z" fill="#FFFAB7"/>
<path d="M189.372 52.7158V31.2705H197.079V52.7158H189.372Z" fill="#FFFAB7"/>
<path d="M187.18 31.2705L179.976 52.7158H171.04L163.836 31.2705H171.934L175.396 45.4557H175.619L179.082 31.2705H187.18Z" fill="#FFFAB7"/>
<path d="M147.867 52.7158V31.2705H155.35C156.439 31.2705 156.797 31.2845 157.501 31.2705C158.584 31.2845 159.226 31.2705 160.371 31.2705C160.729 31.2705 161.086 31.2928 161.443 31.2928C161.801 31.2928 162.158 31.2845 162.387 31.2845V37.8605C162.006 37.7302 161.536 37.6324 160.977 37.5673C160.419 37.5021 159.939 37.4695 159.539 37.4695C158.785 37.4695 158.106 37.6417 157.501 37.9861C156.905 38.3212 156.435 38.7959 156.09 39.4102C155.746 40.0152 155.574 40.7273 155.574 41.5464V52.7158H147.867Z" fill="#FFFAB7"/>
<path d="M134.223 53.1067C131.933 53.1067 129.96 52.6692 128.303 51.7943C126.655 50.91 125.385 49.6442 124.491 47.9967C123.607 46.3399 123.165 44.3573 123.165 42.049C123.165 39.8337 123.612 37.8976 124.505 36.2408C125.399 34.584 126.66 33.2949 128.289 32.3734C129.918 31.452 131.84 30.9912 134.055 30.9912C135.675 30.9912 137.141 31.2425 138.453 31.7451C139.766 32.2478 140.887 32.9784 141.818 33.9371C142.749 34.8866 143.465 36.0407 143.968 37.3997C144.471 38.7586 144.722 40.2898 144.722 41.9931V43.7802H125.566V39.5358H137.629C137.62 38.9215 137.462 38.3817 137.155 37.9163C136.857 37.4416 136.452 37.0739 135.94 36.8133C135.437 36.5433 134.865 36.4084 134.223 36.4084C133.599 36.4084 133.027 36.5433 132.505 36.8133C131.984 37.0739 131.565 37.4369 131.249 37.9023C130.942 38.3677 130.779 38.9122 130.76 39.5358V44.1153C130.76 44.8041 130.905 45.4184 131.193 45.9583C131.482 46.4981 131.896 46.9216 132.436 47.2288C132.976 47.5359 133.627 47.6895 134.39 47.6895C134.921 47.6895 135.405 47.6151 135.842 47.4661C136.289 47.3172 136.671 47.1031 136.987 46.8239C137.304 46.5353 137.536 46.1909 137.685 45.7907H144.722C144.48 47.28 143.908 48.5738 143.005 49.6721C142.102 50.7611 140.906 51.6081 139.417 52.2131C137.937 52.8088 136.205 53.1067 134.223 53.1067Z" fill="#FFFAB7"/>
<path d="M120.436 38.2513H113.343C113.306 37.8139 113.152 37.4369 112.882 37.1204C112.612 36.804 112.263 36.562 111.835 36.3944C111.416 36.2176 110.951 36.1292 110.439 36.1292C109.778 36.1292 109.21 36.2502 108.736 36.4922C108.261 36.7342 108.028 37.0786 108.037 37.5253C108.028 37.8418 108.163 38.135 108.442 38.4049C108.731 38.6749 109.285 38.8843 110.104 39.0332L114.46 39.8151C116.657 40.2153 118.29 40.8901 119.36 41.8395C120.44 42.7796 120.985 44.0408 120.994 45.6232C120.985 47.1497 120.529 48.476 119.626 49.6023C118.732 50.7192 117.508 51.5849 115.954 52.1992C114.409 52.8042 112.645 53.1067 110.662 53.1067C107.386 53.1067 104.822 52.4365 102.969 51.0962C101.126 49.7559 100.098 47.9874 99.8838 45.7907H107.535C107.637 46.4702 107.972 46.9961 108.54 47.3684C109.117 47.7314 109.843 47.9129 110.718 47.9129C111.426 47.9129 112.007 47.7919 112.463 47.5499C112.929 47.3079 113.166 46.9635 113.175 46.5167C113.166 46.1072 112.961 45.7814 112.561 45.5394C112.17 45.2974 111.556 45.1019 110.718 44.953L106.921 44.2828C104.733 43.9012 103.095 43.1752 102.006 42.1048C100.917 41.0344 100.377 39.6568 100.386 37.9721C100.377 36.4828 100.768 35.2216 101.559 34.1885C102.36 33.146 103.5 32.3548 104.98 31.815C106.469 31.2658 108.233 30.9912 110.271 30.9912C113.371 30.9912 115.814 31.6335 117.601 32.9179C119.398 34.2024 120.342 35.9802 120.436 38.2513Z" fill="#FFFAB7"/>
<path d="M87.189 53.1067C84.8992 53.1067 82.926 52.6692 81.2692 51.7943C79.6217 50.91 78.3512 49.6442 77.4576 47.9967C76.5733 46.3399 76.1312 44.3573 76.1312 42.049C76.1312 39.8337 76.578 37.8976 77.4716 36.2408C78.3651 34.584 79.6263 33.2949 81.2552 32.3734C82.8841 31.452 84.8062 30.9912 87.0214 30.9912C88.641 30.9912 90.107 31.2425 91.4194 31.7451C92.7318 32.2478 93.8534 32.9784 94.7842 33.9371C95.715 34.8866 96.4317 36.0407 96.9343 37.3997C97.4369 38.7586 97.6882 40.2898 97.6882 41.9931V43.7802H78.5327V39.5358H90.5956C90.5863 38.9215 90.4281 38.3817 90.1209 37.9163C89.8231 37.4416 89.4182 37.0739 88.9063 36.8133C88.4036 36.5433 87.8312 36.4084 87.189 36.4084C86.5653 36.4084 85.9929 36.5433 85.4717 36.8133C84.9504 37.0739 84.5316 37.4369 84.2151 37.9023C83.9079 38.3677 83.7451 38.9122 83.7264 39.5358V44.1153C83.7264 44.8041 83.8707 45.4184 84.1593 45.9583C84.4478 46.4981 84.862 46.9216 85.4019 47.2288C85.9417 47.5359 86.5933 47.6895 87.3565 47.6895C87.8871 47.6895 88.3711 47.6151 88.8085 47.4661C89.2553 47.3172 89.6369 47.1031 89.9534 46.8239C90.2699 46.5353 90.5026 46.1909 90.6515 45.7907H97.6882C97.4462 47.28 96.8738 48.5738 95.9709 49.6721C95.0681 50.7611 93.872 51.6081 92.3828 52.2131C90.9028 52.8088 89.1715 53.1067 87.189 53.1067Z" fill="#FFFAB7"/>
<path d="M51 52.7158V24.1221H63.3422C65.4644 24.1221 67.3213 24.5083 68.913 25.2809C70.5046 26.0535 71.7426 27.1657 72.6268 28.6178C73.5111 30.0698 73.9532 31.8104 73.9532 33.8395C73.9532 35.8872 73.4971 37.6138 72.5849 39.0193C71.6821 40.4248 70.4115 41.4859 68.7734 42.2026C67.1445 42.9193 65.241 43.2776 63.063 43.2776H55.6912V37.2462H61.4993C62.4114 37.2462 63.1886 37.1345 63.8309 36.9111C64.4824 36.6784 64.9804 36.3107 65.3248 35.8081C65.6785 35.3055 65.8553 34.6493 65.8553 33.8395C65.8553 33.0204 65.6785 32.3549 65.3248 31.8429C64.9804 31.3217 64.4824 30.9401 63.8309 30.6981C63.1886 30.4468 62.4114 30.3211 61.4993 30.3211H58.7628V52.7158H51ZM67.7542 39.5917L74.9026 52.7158H66.4697L59.4888 39.5917H67.7542Z" fill="#FFFAB7"/>
<circle cx="222.92" cy="42.373" r="11.0801" fill="#FF9800"/>
<circle cx="193.254" cy="25.5742" r="3.57422" fill="#FF9800"/>
</svg>
