<svg width="183" height="32" viewBox="0 0 183 32" fill="none" xmlns="http://www.w3.org/2000/svg">
<path d="M157.567 9.27051V30.7158H149.704V9.27051H157.567Z" fill="#15282F"/>
<path d="M138.372 30.7158V9.27051H146.079V30.7158H138.372Z" fill="#15282F"/>
<path d="M136.18 9.27051L128.976 30.7158H120.04L112.836 9.27051H120.934L124.396 23.4557H124.619L128.082 9.27051H136.18Z" fill="#15282F"/>
<path d="M96.8669 30.7158V9.27051H104.35C105.439 9.27051 105.797 9.28447 106.501 9.27051C107.584 9.28447 108.226 9.27051 109.371 9.27051C109.729 9.27055 110.086 9.29285 110.443 9.29284C110.801 9.29284 111.158 9.28447 111.387 9.28447V15.8605C111.006 15.7302 110.536 15.6324 109.977 15.5673C109.419 15.5021 108.939 15.4695 108.539 15.4695C107.785 15.4695 107.106 15.6417 106.501 15.9861C105.905 16.3212 105.435 16.7959 105.09 17.4102C104.746 18.0152 104.574 18.7273 104.574 19.5464V30.7158H96.8669Z" fill="#15282F"/>
<path d="M83.2228 31.1067C80.933 31.1067 78.9598 30.6692 77.303 29.7943C75.6555 28.91 74.385 27.6442 73.4914 25.9967C72.6072 24.3399 72.165 22.3573 72.165 20.049C72.165 17.8337 72.6118 15.8976 73.5054 14.2408C74.3989 12.584 75.6601 11.2949 77.289 10.3734C78.9179 9.45195 80.84 8.99121 83.0552 8.99121C84.6748 8.99121 86.1408 9.24252 87.4532 9.74515C88.7656 10.2478 89.8872 10.9784 90.818 11.9371C91.7488 12.8866 92.4655 14.0407 92.9681 15.3997C93.4707 16.7586 93.722 18.2898 93.722 19.9931V21.7802H74.5665V17.5358H86.6295C86.6201 16.9215 86.4619 16.3817 86.1548 15.9163C85.8569 15.4416 85.452 15.0739 84.9401 14.8133C84.4375 14.5433 83.865 14.4084 83.2228 14.4084C82.5992 14.4084 82.0267 14.5433 81.5055 14.8133C80.9842 15.0739 80.5654 15.4369 80.2489 15.9023C79.9418 16.3677 79.7789 16.9122 79.7603 17.5358V22.1153C79.7603 22.8041 79.9045 23.4184 80.1931 23.9583C80.4816 24.4981 80.8958 24.9216 81.4357 25.2288C81.9755 25.5359 82.6271 25.6895 83.3903 25.6895C83.9209 25.6895 84.4049 25.6151 84.8423 25.4661C85.2891 25.3172 85.6707 25.1031 85.9872 24.8239C86.3037 24.5353 86.5364 24.1909 86.6853 23.7907H93.722C93.48 25.28 92.9076 26.5738 92.0047 27.6721C91.1019 28.7611 89.9058 29.6081 88.4166 30.2131C86.9366 30.8088 85.2054 31.1067 83.2228 31.1067Z" fill="#15282F"/>
<path d="M69.4355 16.2513H62.3429C62.3057 15.8139 62.1521 15.4369 61.8822 15.1204C61.6122 14.804 61.2632 14.562 60.835 14.3944C60.4162 14.2176 59.9508 14.1292 59.4388 14.1292C58.778 14.1292 58.2102 14.2502 57.7355 14.4922C57.2608 14.7342 57.0281 15.0786 57.0374 15.5253C57.0281 15.8418 57.1631 16.135 57.4423 16.4049C57.7309 16.6749 58.2847 16.8843 59.1038 17.0332L63.4598 17.8151C65.6565 18.2153 67.29 18.8901 68.3604 19.8395C69.4401 20.7796 69.9846 22.0408 69.994 23.6232C69.9846 25.1497 69.5286 26.476 68.6257 27.6023C67.7321 28.7192 66.5082 29.5849 64.9538 30.1992C63.4086 30.8042 61.6448 31.1067 59.6622 31.1067C56.3859 31.1067 53.8215 30.4365 51.9693 29.0962C50.1263 27.7559 49.0978 25.9874 48.8837 23.7907H56.5348C56.6372 24.4702 56.9723 24.9961 57.54 25.3684C58.1171 25.7314 58.8431 25.9129 59.7181 25.9129C60.4255 25.9129 61.0072 25.7919 61.4633 25.5499C61.9287 25.3079 62.166 24.9635 62.1754 24.5167C62.166 24.1072 61.9613 23.7814 61.561 23.5394C61.1701 23.2974 60.5558 23.1019 59.7181 22.953L55.9205 22.2828C53.7331 21.9012 52.0949 21.1752 51.0059 20.1048C49.9169 19.0344 49.377 17.6568 49.3864 15.9721C49.377 14.4828 49.768 13.2216 50.5591 12.1885C51.3596 11.146 52.4998 10.3548 53.9798 9.81496C55.469 9.26579 57.2329 8.99121 59.2713 8.99121C62.3708 8.99121 64.8141 9.63345 66.6012 10.9179C68.3977 12.2024 69.3424 13.9802 69.4355 16.2513Z" fill="#15282F"/>
<path d="M36.189 31.1067C33.8992 31.1067 31.926 30.6692 30.2692 29.7943C28.6217 28.91 27.3512 27.6442 26.4576 25.9967C25.5733 24.3399 25.1312 22.3573 25.1312 20.049C25.1312 17.8337 25.578 15.8976 26.4716 14.2408C27.3651 12.584 28.6263 11.2949 30.2552 10.3734C31.8841 9.45195 33.8062 8.99121 36.0214 8.99121C37.641 8.99121 39.107 9.24252 40.4194 9.74515C41.7318 10.2478 42.8534 10.9784 43.7842 11.9371C44.715 12.8866 45.4317 14.0407 45.9343 15.3997C46.4369 16.7586 46.6882 18.2898 46.6882 19.9931V21.7802H27.5327V17.5358H39.5956C39.5863 16.9215 39.4281 16.3817 39.1209 15.9163C38.8231 15.4416 38.4182 15.0739 37.9063 14.8133C37.4036 14.5433 36.8312 14.4084 36.189 14.4084C35.5653 14.4084 34.9929 14.5433 34.4717 14.8133C33.9504 15.0739 33.5316 15.4369 33.2151 15.9023C32.9079 16.3677 32.7451 16.9122 32.7264 17.5358V22.1153C32.7264 22.8041 32.8707 23.4184 33.1593 23.9583C33.4478 24.4981 33.862 24.9216 34.4019 25.2288C34.9417 25.5359 35.5933 25.6895 36.3565 25.6895C36.8871 25.6895 37.3711 25.6151 37.8085 25.4661C38.2553 25.3172 38.6369 25.1031 38.9534 24.8239C39.2699 24.5353 39.5026 24.1909 39.6515 23.7907H46.6882C46.4462 25.28 45.8738 26.5738 44.9709 27.6721C44.0681 28.7611 42.872 29.6081 41.3828 30.2131C39.9028 30.8088 38.1715 31.1067 36.189 31.1067Z" fill="#15282F"/>
<path d="M0 30.7158V2.12207H12.3422C14.4644 2.12207 16.3213 2.50835 17.913 3.2809C19.5046 4.05345 20.7426 5.16574 21.6268 6.61777C22.5111 8.06979 22.9532 9.81036 22.9532 11.8395C22.9532 13.8872 22.4971 15.6138 21.5849 17.0193C20.6821 18.4248 19.4115 19.4859 17.7734 20.2026C16.1445 20.9193 14.241 21.2776 12.063 21.2776H4.69116V15.2462H10.4993C11.4114 15.2462 12.1886 15.1345 12.8309 14.9111C13.4824 14.6784 13.9804 14.3107 14.3248 13.8081C14.6785 13.3055 14.8553 12.6493 14.8553 11.8395C14.8553 11.0204 14.6785 10.3549 14.3248 9.84294C13.9804 9.3217 13.4824 8.94008 12.8309 8.69807C12.1886 8.44676 11.4114 8.32111 10.4993 8.32111H7.76276V30.7158H0ZM16.7542 17.5917L23.9026 30.7158H15.4697L8.48877 17.5917H16.7542Z" fill="#15282F"/>
<circle cx="171.92" cy="20.373" r="11.0801" fill="#FF9800"/>
<circle cx="142.254" cy="3.57422" r="3.57422" fill="#FF9800"/>
</svg>
